# xmcd
#
# Track frame offsets: 
#        182
#        23982
#        43332
#        59300
#        75927
#        86815
#        101735
#        118010
#        140415
#        152992
#        166400
#        181490
#        200235
#        218672
#        237707
#
# Disc length: 3417 seconds
#
# Revision: 0
# Processed by: cddbd v1.5.1PL2 Copyright (c) Steve Scherf et al.
# Submitted via: ExactAudioCopy v0.95b3
#
DISCID=db0d570f
DTITLE=ZZ Hill - Greatest Hits
DYEAR=1996
DGENRE=Blues
TTITLE0=Down Home Blues
TTITLE1=When Can We Do This Again
TTITLE2=Right Arm For Your Love
TTITLE3=When It Rains It Pours
TTITLE4=Woman Don't Go Astray
TTITLE5=Givin' It Up For Your Love
TTITLE6=Cheating In The Next Room
TTITLE7=Everybody Knows About My Good Thing
TTITLE8=You're Ruining My Bad Reputation
TTITLE9=Bottom Line Woman
TTITLE10=She Got The Goods On Me
TTITLE11=I'm Gonna Stop You From Givin' Me The Blues
TTITLE12=Friday is My Day
TTITLE13=Get A Little, Give A Little
TTITLE14=Steal Away
EXTD=
EXTT0=
EXTT1=
EXTT2=
EXTT3=
EXTT4=
EXTT5=
EXTT6=
EXTT7=
EXTT8=
EXTT9=
EXTT10=
EXTT11=
EXTT12=
EXTT13=
EXTT14=
PLAYORDER=
